<svg version="1.2" xmlns="http://www.w3.org/2000/svg" viewBox="0 0 500 500" width="250" height="250">
	<title>Logo Agaleus</title>
	<style>
		.s0 { fill: #00de86 } 
	</style>
	<path id="Path 0" fill-rule="evenodd" class="s0" d="m250.5 60.3c12.1 0.3 15.1 0.7 22 3.1 4.4 1.5 11.1 4.7 15 7.1 3.9 2.3 10.2 7.6 14 11.6 4 4.2 8.6 10.4 10.7 14.4 2 3.8 10.4 25.4 18.6 48 8.2 22.6 16.6 45.1 18.7 50 2 4.9 5.4 12.4 7.5 16.5 2.1 4.1 6.1 11.6 9 16.5 2.9 4.9 8.7 13.9 12.8 20 4.1 6.1 10 14.1 13.1 18 3.1 3.9 15.4 18.5 27.4 32.5 12.1 14 23.6 28.4 25.7 32 2.1 3.6 4.8 9.3 5.9 12.8 1.2 3.4 2.6 9.5 3.2 13.5 0.6 4 0.9 10.5 0.5 14.7-0.4 4.1-1.3 10.2-2.2 13.5-0.8 3.3-3.1 9.1-4.9 13-1.8 3.9-5.6 10-8.4 13.8-2.8 3.7-7.9 9-11.3 11.8-3.5 2.7-9.9 6.8-14.3 8.9-4.4 2.1-11.6 4.6-16 5.6-6.1 1.3-10.6 1.5-19 1.1-9.4-0.5-14.1-1.4-33-6.7-12.1-3.4-27.2-7.3-33.5-8.5-6.3-1.3-17.1-3.2-24-4.1-9.4-1.3-19.3-1.8-39.5-1.8-20.4 0-30 0.4-39.5 1.7-6.9 1-17.9 2.9-24.5 4.2-6.6 1.3-21 5-32 8-11 3.1-23.6 6.1-28 6.7-5.6 0.8-10.5 0.8-16.5 0-4.7-0.6-11.4-2-15-3.2-3.6-1.2-9.4-3.9-13-6-3.6-2.1-8.9-6-11.9-8.7-3-2.6-7.3-7.5-9.7-10.8-2.3-3.3-5.7-8.9-7.4-12.5-1.8-3.6-4.1-9.9-5.1-14-1.3-4.9-1.9-11-1.9-17.5 0-6.5 0.6-12.6 1.9-17.5 1-4.1 3.4-10.6 5.4-14.5 1.9-3.9 5.2-9.2 7.4-12 2.2-2.7 12.4-14.7 22.7-26.5 10.3-11.8 23.2-27.4 28.6-34.5 5.3-7.2 11.7-16.2 14.2-20 2.5-3.8 7.2-11.9 10.6-18 3.4-6.1 8.6-16.6 11.6-23.5 2.9-6.9 12.2-31.6 20.6-55 9.3-26.1 16.6-45 19-49 2.1-3.6 6-8.9 8.6-11.9 2.7-3 7.6-7.3 10.9-9.6 3.3-2.4 8.5-5.5 11.5-7 3-1.5 8.7-3.6 12.5-4.6 5.6-1.5 9.7-1.8 21-1.6zm-14.2 56.3c-1.8 1.3-3.9 3.6-4.7 5.2-0.8 1.5-7.8 20.5-15.6 42.2-7.8 21.7-16.2 44.4-18.7 50.5-2.4 6.1-7.6 17.1-11.3 24.5-3.8 7.4-10.4 19.1-14.7 26-4.3 6.9-11.8 17.9-16.7 24.5-4.9 6.6-12.2 15.8-16.1 20.5-4 4.7-14.3 16.6-22.9 26.5-8.7 9.9-16.5 19.4-17.4 21-0.8 1.6-1.6 5.3-1.6 8 0 3.6 0.8 6.4 2.7 9.8 1.5 2.6 4.4 5.8 6.4 7.2 2.1 1.4 5.8 2.8 8.3 3.1 3.5 0.4 8.8-0.6 24.5-5 11-3.1 25.2-6.7 31.5-8.1 6.3-1.3 17.8-3.3 25.5-4.4 7.7-1.1 21.9-2.5 31.5-3.2 10-0.6 24.2-0.8 33-0.4 8.5 0.3 21.6 1.3 29 2.1 7.4 0.8 17.6 2.1 22.5 3 4.9 0.8 13.1 2.4 18 3.6 4.9 1.1 18 4.5 29 7.5 11.8 3.3 21.8 5.5 24.5 5.5 2.9-0.1 6-1.1 8.7-2.7 2.7-1.6 5.3-4.3 7-7.3 1.5-2.6 2.9-6.5 3.1-8.7q0.5-4-1.6-8.5c-1.1-2.5-10-13.7-20.2-25.5-10-11.6-21.7-25.3-26-30.5-4.2-5.2-11-14.2-15.2-20-4.1-5.8-10.2-15-13.7-20.5-3.4-5.5-9.8-17-14.1-25.5-4.3-8.5-10.1-21.1-12.8-28-2.7-6.9-10.9-29.2-18.3-49.5-12.3-34.2-13.6-37.3-17.3-41.1-2.5-2.5-5.7-4.6-8.1-5.3-2.2-0.6-5.1-1.1-6.5-1-1.4 0-3.8 0.5-5.5 1.1-1.7 0.6-4.5 2.1-6.3 3.4z"/>
</svg>