<!-- <svg xmlns="http://www.w3.org/2000/svg" viewBox="0 0 841.9 595.3"><g fill="#61DAFB"><path d="M666.3 296.5c0-32.5-40.7-63.3-103.1-82.4 14.4-63.6 8-114.2-20.2-130.4-6.5-3.8-14.1-5.6-22.4-5.6v22.3c4.6 0 8.3.9 11.4 2.6 13.6 7.8 19.5 37.5 14.9 75.7-1.1 9.4-2.9 19.3-5.1 29.4-19.6-4.8-41-8.5-63.5-10.9-13.5-18.5-27.5-35.3-41.6-50 32.6-30.3 63.2-46.9 84-46.9V78c-27.5 0-63.5 19.6-99.9 53.6-36.4-33.8-72.4-53.2-99.9-53.2v22.3c20.7 0 51.4 16.5 84 46.6-14 14.7-28 31.4-41.3 49.9-22.6 2.4-44 6.1-63.6 11-2.3-10-4-19.7-5.2-29-4.7-38.2 1.1-67.9 14.6-75.8 3-1.8 6.9-2.6 11.5-2.6V78.5c-8.4 0-16 1.8-22.6 5.6-28.1 16.2-34.4 66.7-19.9 130.1-62.2 19.2-102.7 49.9-102.7 82.3 0 32.5 40.7 63.3 103.1 82.4-14.4 63.6-8 114.2 20.2 130.4 6.5 3.8 14.1 5.6 22.5 5.6 27.5 0 63.5-19.6 99.9-53.6 36.4 33.8 72.4 53.2 99.9 53.2 8.4 0 16-1.8 22.6-5.6 28.1-16.2 34.4-66.7 19.9-130.1 62-19.1 102.5-49.9 102.5-82.3zm-130.2-66.7c-3.7 12.9-8.3 26.2-13.5 39.5-4.1-8-8.4-16-13.1-24-4.6-8-9.5-15.8-14.4-23.4 14.2 2.1 27.9 4.7 41 7.9zm-45.8 106.5c-7.8 13.5-15.8 26.3-24.1 38.2-14.9 1.3-30 2-45.2 2-15.1 0-30.2-.7-45-1.9-8.3-11.9-16.4-24.6-24.2-38-7.6-13.1-14.5-26.4-20.8-39.8 6.2-13.4 13.2-26.8 20.7-39.9 7.8-13.5 15.8-26.3 24.1-38.2 14.9-1.3 30-2 45.2-2 15.1 0 30.2.7 45 1.9 8.3 11.9 16.4 24.6 24.2 38 7.6 13.1 14.5 26.4 20.8 39.8-6.3 13.4-13.2 26.8-20.7 39.9zm32.3-13c5.4 13.4 10 26.8 13.8 39.8-13.1 3.2-26.9 5.9-41.2 8 4.9-7.7 9.8-15.6 14.4-23.7 4.6-8 8.9-16.1 13-24.1zM421.2 430c-9.3-9.6-18.6-20.3-27.8-32 9 .4 18.2.7 27.5.7 9.4 0 18.7-.2 27.8-.7-9 11.7-18.3 22.4-27.5 32zm-74.4-58.9c-14.2-2.1-27.9-4.7-41-7.9 3.7-12.9 8.3-26.2 13.5-39.5 4.1 8 8.4 16 13.1 24 4.7 8 9.5 15.8 14.4 23.4zM420.7 163c9.3 9.6 18.6 20.3 27.8 32-9-.4-18.2-.7-27.5-.7-9.4 0-18.7.2-27.8.7 9-11.7 18.3-22.4 27.5-32zm-74 58.9c-4.9 7.7-9.8 15.6-14.4 23.7-4.6 8-8.9 16-13 24-5.4-13.4-10-26.8-13.8-39.8 13.1-3.1 26.9-5.8 41.2-7.9zm-90.5 125.2c-35.4-15.1-58.3-34.9-58.3-50.6 0-15.7 22.9-35.6 58.3-50.6 8.6-3.7 18-7 27.7-10.1 5.7 19.6 13.2 40 22.5 60.9-9.2 20.8-16.6 41.1-22.2 60.6-9.9-3.1-19.3-6.5-28-10.2zM310 490c-13.6-7.8-19.5-37.5-14.9-75.7 1.1-9.4 2.9-19.3 5.1-29.4 19.6 4.8 41 8.5 63.5 10.9 13.5 18.5 27.5 35.3 41.6 50-32.6 30.3-63.2 46.9-84 46.9-4.5-.1-8.3-1-11.3-2.7zm237.2-76.2c4.7 38.2-1.1 67.9-14.6 75.8-3 1.8-6.9 2.6-11.5 2.6-20.7 0-51.4-16.5-84-46.6 14-14.7 28-31.4 41.3-49.9 22.6-2.4 44-6.1 63.6-11 2.3 10.1 4.1 19.8 5.2 29.1zm38.5-66.7c-8.6 3.7-18 7-27.7 10.1-5.7-19.6-13.2-40-22.5-60.9 9.2-20.8 16.6-41.1 22.2-60.6 9.9 3.1 19.3 6.5 28.1 10.2 35.4 15.1 58.3 34.9 58.3 50.6-.1 15.7-23 35.6-58.4 50.6zM320.8 78.4z"/><circle cx="420.9" cy="296.5" r="45.7"/><path d="M520.5 78.1z"/></g></svg> -->

<svg version="1.2" xmlns="http://www.w3.org/2000/svg" viewBox="0 0 500 500" width="250" height="250">
	<title>Logo Agaleus</title>
	<style>
		.s0 { fill: #00de86 } 
	</style>
	<path id="Path 0" fill-rule="evenodd" class="s0" d="m250.5 60.3c12.1 0.3 15.1 0.7 22 3.1 4.4 1.5 11.1 4.7 15 7.1 3.9 2.3 10.2 7.6 14 11.6 4 4.2 8.6 10.4 10.7 14.4 2 3.8 10.4 25.4 18.6 48 8.2 22.6 16.6 45.1 18.7 50 2 4.9 5.4 12.4 7.5 16.5 2.1 4.1 6.1 11.6 9 16.5 2.9 4.9 8.7 13.9 12.8 20 4.1 6.1 10 14.1 13.1 18 3.1 3.9 15.4 18.5 27.4 32.5 12.1 14 23.6 28.4 25.7 32 2.1 3.6 4.8 9.3 5.9 12.8 1.2 3.4 2.6 9.5 3.2 13.5 0.6 4 0.9 10.5 0.5 14.7-0.4 4.1-1.3 10.2-2.2 13.5-0.8 3.3-3.1 9.1-4.9 13-1.8 3.9-5.6 10-8.4 13.8-2.8 3.7-7.9 9-11.3 11.8-3.5 2.7-9.9 6.8-14.3 8.9-4.4 2.1-11.6 4.6-16 5.6-6.1 1.3-10.6 1.5-19 1.1-9.4-0.5-14.1-1.4-33-6.7-12.1-3.4-27.2-7.3-33.5-8.5-6.3-1.3-17.1-3.2-24-4.1-9.4-1.3-19.3-1.8-39.5-1.8-20.4 0-30 0.4-39.5 1.7-6.9 1-17.9 2.9-24.5 4.2-6.6 1.3-21 5-32 8-11 3.1-23.6 6.1-28 6.7-5.6 0.8-10.5 0.8-16.5 0-4.7-0.6-11.4-2-15-3.2-3.6-1.2-9.4-3.9-13-6-3.6-2.1-8.9-6-11.9-8.7-3-2.6-7.3-7.5-9.7-10.8-2.3-3.3-5.7-8.9-7.4-12.5-1.8-3.6-4.1-9.9-5.1-14-1.3-4.9-1.9-11-1.9-17.5 0-6.5 0.6-12.6 1.9-17.5 1-4.1 3.4-10.6 5.4-14.5 1.9-3.9 5.2-9.2 7.4-12 2.2-2.7 12.4-14.7 22.7-26.5 10.3-11.8 23.2-27.4 28.6-34.5 5.3-7.2 11.7-16.2 14.2-20 2.5-3.8 7.2-11.9 10.6-18 3.4-6.1 8.6-16.6 11.6-23.5 2.9-6.9 12.2-31.6 20.6-55 9.3-26.1 16.6-45 19-49 2.1-3.6 6-8.9 8.6-11.9 2.7-3 7.6-7.3 10.9-9.6 3.3-2.4 8.5-5.5 11.5-7 3-1.5 8.7-3.6 12.5-4.6 5.6-1.5 9.7-1.8 21-1.6zm-14.2 56.3c-1.8 1.3-3.9 3.6-4.7 5.2-0.8 1.5-7.8 20.5-15.6 42.2-7.8 21.7-16.2 44.4-18.7 50.5-2.4 6.1-7.6 17.1-11.3 24.5-3.8 7.4-10.4 19.1-14.7 26-4.3 6.9-11.8 17.9-16.7 24.5-4.9 6.6-12.2 15.8-16.1 20.5-4 4.7-14.3 16.6-22.9 26.5-8.7 9.9-16.5 19.4-17.4 21-0.8 1.6-1.6 5.3-1.6 8 0 3.6 0.8 6.4 2.7 9.8 1.5 2.6 4.4 5.8 6.4 7.2 2.1 1.4 5.8 2.8 8.3 3.1 3.5 0.4 8.8-0.6 24.5-5 11-3.1 25.2-6.7 31.5-8.1 6.3-1.3 17.8-3.3 25.5-4.4 7.7-1.1 21.9-2.5 31.5-3.2 10-0.6 24.2-0.8 33-0.4 8.5 0.3 21.6 1.3 29 2.1 7.4 0.8 17.6 2.1 22.5 3 4.9 0.8 13.1 2.4 18 3.6 4.9 1.1 18 4.5 29 7.5 11.8 3.3 21.8 5.5 24.5 5.5 2.9-0.1 6-1.1 8.7-2.7 2.7-1.6 5.3-4.3 7-7.3 1.5-2.6 2.9-6.5 3.1-8.7q0.5-4-1.6-8.5c-1.1-2.5-10-13.7-20.2-25.5-10-11.6-21.7-25.3-26-30.5-4.2-5.2-11-14.2-15.2-20-4.1-5.8-10.2-15-13.7-20.5-3.4-5.5-9.8-17-14.1-25.5-4.3-8.5-10.1-21.1-12.8-28-2.7-6.9-10.9-29.2-18.3-49.5-12.3-34.2-13.6-37.3-17.3-41.1-2.5-2.5-5.7-4.6-8.1-5.3-2.2-0.6-5.1-1.1-6.5-1-1.4 0-3.8 0.5-5.5 1.1-1.7 0.6-4.5 2.1-6.3 3.4z"/>
</svg>